<svg width="807" height="654" viewBox="0 0 807 654" fill="none" xmlns="http://www.w3.org/2000/svg">
<path d="M264.679 10.7937C320.705 1.17755 383.44 -9.38547 440.222 15.5852C497.003 40.5558 548.435 63.5202 616.326 92.9108C683.394 122.31 767.336 156.895 794.815 213.868C822.294 270.84 794.131 351.016 766.799 427.889C739.879 504.346 732.903 550.995 682.161 595.565C631.83 640.542 555.612 656.536 487.668 653.504C419.312 650.887 358.407 628.428 277.274 631.292C196.551 634.564 95.6025 661.511 61.9096 623.133C28.6277 585.162 44.7232 508.77 41.1792 426.85C37.6369 344.106 -3.83575 283.154 1.21555 227.917C6.26685 172.681 57.4279 124.401 107.764 76.9519C158.51 29.911 208.653 20.4099 264.679 10.7937Z" fill="#D8958F"/>
</svg>
