<svg width="73" height="72" viewBox="0 0 73 72" fill="none" xmlns="http://www.w3.org/2000/svg">
<path d="M15.998 51H12.998C11.4067 51 9.88062 50.3679 8.75541 49.2426C7.63019 48.1174 6.99805 46.5913 6.99805 45V15C6.99805 13.4087 7.63019 11.8826 8.75541 10.7574C9.88062 9.63214 11.4067 9 12.998 9H60.998C62.5893 9 64.1155 9.63214 65.2407 10.7574C66.3659 11.8826 66.998 13.4087 66.998 15V45C66.998 46.5913 66.3659 48.1174 65.2407 49.2426C64.1155 50.3679 62.5893 51 60.998 51H57.998" stroke="#E8E7E2" stroke-width="2" stroke-linecap="round" stroke-linejoin="round"/>
<path d="M36.998 45L51.998 63H21.998L36.998 45Z" stroke="#E8E7E2" stroke-width="2" stroke-linecap="round" stroke-linejoin="round"/>
</svg>
