<svg width="184" height="1012" viewBox="0 0 184 1012" fill="none" xmlns="http://www.w3.org/2000/svg">
<path d="M752.277 169.534C858.205 198.063 998.356 229.038 999.986 290.987C1001.62 352.936 863.909 446.675 802.797 543.675C741.684 639.859 756.351 739.304 718.054 837.934C680.572 936.564 590.941 1034.38 520.051 1007.48C449.16 980.58 398.641 829.783 307.38 748.27C216.119 666.758 84.1165 656.162 31.1526 595.027C-21.8114 534.708 3.44832 423.852 28.7081 303.214C53.153 181.761 77.5979 49.7108 155.822 12.2152C234.86 -25.2804 367.677 31.7781 470.346 72.5342C573.015 114.105 645.535 141.004 752.277 169.534Z" fill="#EBA29B" fill-opacity="0.92"/>
</svg>
