<svg width="412" height="1012" viewBox="0 0 412 1012" fill="none" xmlns="http://www.w3.org/2000/svg">
<path d="M164.277 169.534C270.205 198.063 410.356 229.038 411.986 290.987C413.615 352.936 275.909 446.675 214.797 543.675C153.684 639.859 168.351 739.304 130.054 837.934C92.5723 936.564 2.94092 1034.38 -67.9493 1007.48C-138.84 980.58 -189.359 829.783 -280.62 748.27C-371.881 666.758 -503.883 656.162 -556.847 595.027C-609.811 534.708 -584.552 423.852 -559.292 303.214C-534.847 181.761 -510.402 49.7108 -432.178 12.2152C-353.14 -25.2804 -220.323 31.7781 -117.654 72.5342C-14.9854 114.105 57.5345 141.004 164.277 169.534Z" fill="#EBA29B" fill-opacity="0.92"/>
</svg>
