<svg width="73" height="72" viewBox="0 0 73 72" fill="none" xmlns="http://www.w3.org/2000/svg">
<path d="M63.6275 47.8353V24.1641C63.6264 23.1263 63.3525 22.1071 62.8331 21.2086C62.3138 20.3102 61.5673 19.5641 60.6686 19.0452L39.9562 7.20959C39.0566 6.69019 38.0361 6.41675 36.9973 6.41675C35.9586 6.41675 34.938 6.69019 34.0384 7.20959L13.3261 19.0452C12.4274 19.5641 11.6808 20.3102 11.1616 21.2086C10.6422 22.1071 10.3683 23.1263 10.3672 24.1641V47.8353C10.3683 48.8731 10.6422 49.8924 11.1616 50.7908C11.6808 51.6893 12.4274 52.4353 13.3261 52.9542L34.0384 64.7898C34.938 65.3092 35.9586 65.5827 36.9973 65.5827C38.0361 65.5827 39.0566 65.3092 39.9562 64.7898L60.6686 52.9542C61.5673 52.4353 62.3138 51.6893 62.8331 50.7908C63.3525 49.8924 63.6264 48.8731 63.6275 47.8353Z" stroke="#E8E7E2" stroke-width="2" stroke-linecap="round" stroke-linejoin="round"/>
<path d="M11.166 21.0869L36.9972 36.0294L62.8285 21.0869" stroke="#E8E7E2" stroke-width="2" stroke-linecap="round" stroke-linejoin="round"/>
<path d="M36.998 65.8258V36" stroke="#E8E7E2" stroke-width="2" stroke-linecap="round" stroke-linejoin="round"/>
</svg>
