<svg width="73" height="72" viewBox="0 0 73 72" fill="none" xmlns="http://www.w3.org/2000/svg">
<path d="M54.002 12H18.002C14.6883 12 12.002 14.6863 12.002 18V54C12.002 57.3137 14.6883 60 18.002 60H54.002C57.3157 60 60.002 57.3137 60.002 54V18C60.002 14.6863 57.3157 12 54.002 12Z" stroke="#E8E7E2" stroke-width="2" stroke-linecap="round" stroke-linejoin="round"/>
<path d="M45.002 27H27.002V45H45.002V27Z" stroke="#E8E7E2" stroke-width="2" stroke-linecap="round" stroke-linejoin="round"/>
<path d="M27.002 3V12" stroke="#E8E7E2" stroke-width="2" stroke-linecap="round" stroke-linejoin="round"/>
<path d="M45.002 3V12" stroke="#E8E7E2" stroke-width="2" stroke-linecap="round" stroke-linejoin="round"/>
<path d="M27.002 60V69" stroke="#E8E7E2" stroke-width="2" stroke-linecap="round" stroke-linejoin="round"/>
<path d="M45.002 60V69" stroke="#E8E7E2" stroke-width="2" stroke-linecap="round" stroke-linejoin="round"/>
<path d="M60.002 27H69.002" stroke="#E8E7E2" stroke-width="2" stroke-linecap="round" stroke-linejoin="round"/>
<path d="M60.002 42H69.002" stroke="#E8E7E2" stroke-width="2" stroke-linecap="round" stroke-linejoin="round"/>
<path d="M3.00195 27H12.002" stroke="#E8E7E2" stroke-width="2" stroke-linecap="round" stroke-linejoin="round"/>
<path d="M3.00195 42H12.002" stroke="#E8E7E2" stroke-width="2" stroke-linecap="round" stroke-linejoin="round"/>
</svg>
