<svg width="195" height="72" viewBox="0 0 195 72" fill="none" xmlns="http://www.w3.org/2000/svg">
<path d="M7.86034 13.7401V32.0904H0.480469V0H6.33036L21.1351 18.8927V0H28.515V32.0904H22.4851L7.86034 13.7401Z" fill="#141414"/>
<path d="M57.08 25.5819V32.0904H34.6254V0H56.675V6.50847H42.0052V12.7458H54.605V18.7571H42.0052V25.5819H57.08Z" fill="#141414"/>
<path d="M66.2433 0L73.1732 11.0734L80.1031 0H88.1129L77.5381 16.2712L87.7529 32.0904H79.7431L73.1732 21.4689L66.6033 32.0904H58.5484L68.7632 16.2712L58.1884 0H66.2433Z" fill="#141414"/>
<path d="M115.219 6.50847H105.499V32.0904H98.1193V6.50847H88.3544V0H115.219V6.50847Z" fill="#141414"/>
<path d="M8.82897 39.548L16.3438 62.9604L23.7687 39.548H31.5536L19.9438 71.6384H12.6989L0.999107 39.548H8.82897Z" fill="#141414"/>
<path d="M56.9704 65.1299V71.6384H34.5158V39.548H56.5654V46.0565H41.8957V52.2938H54.4954V58.3051H41.8957V65.1299H56.9704Z" fill="#141414"/>
<path d="M61.4538 71.6384V39.548H75.8535C77.3535 39.548 78.7335 39.8644 79.9935 40.4972C81.2834 41.0998 82.3934 41.9284 83.3234 42.983C84.2534 44.0075 84.9734 45.1676 85.4834 46.4633C86.0233 47.7589 86.2934 49.0697 86.2934 50.3955C86.2934 52.3842 85.8134 54.2222 84.8534 55.9096C83.9234 57.5669 82.6634 58.8324 81.0734 59.7062L88.0933 71.6384H79.9485L73.8286 61.2881H68.8337V71.6384H61.4538ZM68.8337 54.8249H75.5835C76.4535 54.8249 77.2035 54.4181 77.8335 53.6045C78.4635 52.7608 78.7785 51.6911 78.7785 50.3955C78.7785 49.0998 78.4185 48.0603 77.6985 47.2768C76.9785 46.4633 76.1985 46.0565 75.3585 46.0565H68.8337V54.8249Z" fill="#141414"/>
<path d="M110.769 48.9492C110.679 48.8286 110.364 48.6026 109.824 48.2712C109.284 47.9397 108.609 47.5932 107.799 47.2316C106.989 46.8399 106.104 46.5235 105.144 46.2825C104.185 46.0113 103.225 45.8757 102.265 45.8757C99.6246 45.8757 98.3046 46.7646 98.3046 48.5424C98.3046 49.6271 98.8746 50.3955 100.015 50.8475C101.185 51.2994 102.85 51.8418 105.009 52.4746C107.049 53.0471 108.804 53.71 110.274 54.4633C111.774 55.1864 112.929 56.1657 113.739 57.4011C114.549 58.6064 114.954 60.2034 114.954 62.1921C114.954 64 114.624 65.5367 113.964 66.8023C113.304 68.0377 112.404 69.0471 111.264 69.8305C110.124 70.5838 108.834 71.1412 107.394 71.5028C105.984 71.8343 104.515 72 102.985 72C100.615 72 98.2146 71.6535 95.7847 70.9604C93.3547 70.2373 91.2097 69.258 89.3498 68.0226L92.5897 61.5593C92.7097 61.71 93.0997 61.9962 93.7597 62.4181C94.4197 62.8098 95.2447 63.2316 96.2347 63.6836C97.2246 64.1356 98.3046 64.5273 99.4746 64.8588C100.675 65.1601 101.89 65.3107 103.12 65.3107C105.729 65.3107 107.034 64.5122 107.034 62.9153C107.034 62.1017 106.689 61.4689 105.999 61.0169C105.339 60.5348 104.425 60.1281 103.255 59.7966C102.085 59.435 100.765 59.0282 99.2946 58.5763C96.3547 57.6723 94.1797 56.5725 92.7697 55.2768C91.3897 53.9812 90.6998 52.1281 90.6998 49.7175C90.6998 47.4576 91.2247 45.5593 92.2747 44.0226C93.3547 42.4557 94.7947 41.2806 96.5946 40.4972C98.3946 39.6836 100.36 39.2768 102.49 39.2768C104.74 39.2768 106.869 39.6685 108.879 40.452C110.889 41.2053 112.599 41.9887 114.009 42.8023L110.769 48.9492Z" fill="#141414"/>
<path d="M119.285 71.6384V39.548H126.665V71.6384H119.285Z" fill="#141414"/>
<path d="M146.771 71.9096C144.401 71.9096 142.241 71.4576 140.291 70.5537C138.371 69.6196 136.706 68.3842 135.296 66.8475C133.886 65.2806 132.806 63.533 132.056 61.6045C131.306 59.646 130.931 57.6271 130.931 55.548C130.931 53.4388 131.321 51.42 132.101 49.4915C132.911 47.533 134.021 45.8004 135.431 44.2938C136.871 42.7571 138.566 41.5518 140.516 40.678C142.466 39.8041 144.596 39.3672 146.906 39.3672C149.275 39.3672 151.42 39.8343 153.34 40.7684C155.29 41.6723 156.955 42.9077 158.335 44.4746C159.745 46.0414 160.825 47.8041 161.575 49.7627C162.325 51.6912 162.7 53.6648 162.7 55.6836C162.7 57.7928 162.295 59.8267 161.485 61.7853C160.705 63.7137 159.595 65.4463 158.155 66.983C156.745 68.4896 155.065 69.6949 153.115 70.5989C151.195 71.4727 149.08 71.9096 146.771 71.9096ZM138.446 55.6384C138.446 57.2957 138.761 58.8625 139.391 60.339C140.021 61.7853 140.966 62.9755 142.226 63.9096C143.486 64.8437 145.016 65.3107 146.816 65.3107C148.675 65.3107 150.22 64.8286 151.45 63.8644C152.71 62.9002 153.64 61.6798 154.24 60.2034C154.87 58.6968 155.185 57.145 155.185 55.548C155.185 53.8908 154.855 52.339 154.195 50.8927C153.565 49.4162 152.62 48.226 151.36 47.322C150.13 46.4181 148.615 45.9661 146.816 45.9661C144.956 45.9661 143.396 46.4482 142.136 47.4124C140.906 48.3465 139.976 49.5518 139.346 51.0282C138.746 52.5047 138.446 54.0414 138.446 55.6384Z" fill="#141414"/>
<path d="M174.344 53.2881V71.6384H166.965V39.548H172.815L187.619 58.4407V39.548H194.999V71.6384H188.969L174.344 53.2881Z" fill="#141414"/>
</svg>
