<svg width="194" height="72" viewBox="0 0 194 72" fill="none" xmlns="http://www.w3.org/2000/svg">
<path d="M49.8612 13.7396V32.0899H42.4814V-0.000488281H48.3313L63.136 18.8922V-0.000488281H70.5159V32.0899H64.486L49.8612 13.7396Z" fill="#E8E7E2"/>
<path d="M99.0809 25.5814V32.0899H76.6263V-0.000488281H98.6759V6.50799H84.0061V12.7453H96.6059V18.7566H84.0061V25.5814H99.0809Z" fill="#E8E7E2"/>
<path d="M108.244 -0.000488281L115.174 11.073L122.104 -0.000488281H130.114L119.539 16.2707L129.754 32.0899H121.744L115.174 21.4684L108.604 32.0899H100.549L110.764 16.2707L100.189 -0.000488281H108.244Z" fill="#E8E7E2"/>
<path d="M157.22 6.50799H147.5V32.0899H140.12V6.50799H130.355V-0.000488281H157.22V6.50799Z" fill="#E8E7E2"/>
<path d="M7.82986 39.5475L15.3447 62.96L22.7696 39.5475H30.5545L18.9447 71.6379H11.6998L0 39.5475H7.82986Z" fill="#E8E7E2"/>
<path d="M55.9713 65.1295V71.6379H33.5167V39.5475H55.5663V46.056H40.8965V52.2933H53.4963V58.3046H40.8965V65.1295H55.9713Z" fill="#E8E7E2"/>
<path d="M60.4547 71.6379V39.5475H74.8544C76.3544 39.5475 77.7344 39.8639 78.9944 40.4967C80.2843 41.0993 81.3943 41.9279 82.3243 42.9826C83.2543 44.007 83.9743 45.1671 84.4843 46.4628C85.0242 47.7585 85.2942 49.0692 85.2942 50.395C85.2942 52.3837 84.8142 54.2217 83.8543 55.9091C82.9243 57.5664 81.6643 58.8319 80.0743 59.7057L87.0942 71.6379H78.9494L72.8295 61.2876H67.8345V71.6379H60.4547ZM67.8345 54.8244H74.5844C75.4544 54.8244 76.2044 54.4176 76.8344 53.604C77.4644 52.7603 77.7794 51.6907 77.7794 50.395C77.7794 49.0993 77.4194 48.0598 76.6994 47.2763C75.9794 46.4628 75.1994 46.056 74.3594 46.056H67.8345V54.8244Z" fill="#E8E7E2"/>
<path d="M109.77 48.9487C109.68 48.8281 109.365 48.6021 108.825 48.2707C108.285 47.9393 107.61 47.5927 106.8 47.2312C105.99 46.8394 105.105 46.523 104.145 46.282C103.185 46.0108 102.225 45.8752 101.265 45.8752C98.6255 45.8752 97.3055 46.7641 97.3055 48.5419C97.3055 49.6266 97.8755 50.395 99.0155 50.847C100.185 51.2989 101.85 51.8413 104.01 52.4741C106.05 53.0466 107.805 53.7095 109.275 54.4628C110.775 55.186 111.93 56.1652 112.74 57.4006C113.55 58.6059 113.955 60.2029 113.955 62.1916C113.955 63.9995 113.625 65.5362 112.965 66.8018C112.305 68.0372 111.405 69.0466 110.265 69.83C109.125 70.5833 107.835 71.1408 106.395 71.5023C104.985 71.8338 103.515 71.9995 101.985 71.9995C99.6155 71.9995 97.2155 71.653 94.7856 70.96C92.3556 70.2368 90.2106 69.2575 88.3507 68.0221L91.5906 61.5588C91.7106 61.7095 92.1006 61.9957 92.7606 62.4176C93.4206 62.8093 94.2456 63.2312 95.2355 63.6831C96.2255 64.1351 97.3055 64.5268 98.4755 64.8583C99.6755 65.1596 100.89 65.3102 102.12 65.3102C104.73 65.3102 106.035 64.5118 106.035 62.9148C106.035 62.1012 105.69 61.4684 105 61.0165C104.34 60.5344 103.425 60.1276 102.255 59.7961C101.085 59.4345 99.7655 59.0278 98.2955 58.5758C95.3556 57.6718 93.1806 56.572 91.7706 55.2763C90.3906 53.9807 89.7007 52.1276 89.7007 49.717C89.7007 47.4571 90.2256 45.5588 91.2756 44.0221C92.3556 42.4553 93.7956 41.2801 95.5955 40.4967C97.3955 39.6831 99.3605 39.2763 101.49 39.2763C103.74 39.2763 105.87 39.6681 107.88 40.4515C109.89 41.2048 111.6 41.9882 113.01 42.8018L109.77 48.9487Z" fill="#E8E7E2"/>
<path d="M118.286 71.6379V39.5475H125.666V71.6379H118.286Z" fill="#E8E7E2"/>
<path d="M145.771 71.9091C143.401 71.9091 141.242 71.4571 139.292 70.5532C137.372 69.6191 135.707 68.3837 134.297 66.847C132.887 65.2801 131.807 63.5325 131.057 61.604C130.307 59.6455 129.932 57.6266 129.932 55.5475C129.932 53.4383 130.322 51.4195 131.102 49.491C131.912 47.5325 133.022 45.7999 134.432 44.2933C135.872 42.7566 137.567 41.5513 139.517 40.6775C141.466 39.8037 143.596 39.3667 145.906 39.3667C148.276 39.3667 150.421 39.8338 152.341 40.7679C154.291 41.6718 155.956 42.9072 157.336 44.4741C158.746 46.0409 159.826 47.8037 160.576 49.7622C161.326 51.6907 161.701 53.6643 161.701 55.6831C161.701 57.7924 161.296 59.8263 160.486 61.7848C159.706 63.7133 158.596 65.4458 157.156 66.9826C155.746 68.4892 154.066 69.6944 152.116 70.5984C150.196 71.4722 148.081 71.9091 145.771 71.9091ZM137.447 55.6379C137.447 57.2952 137.762 58.862 138.392 60.3385C139.022 61.7848 139.967 62.975 141.227 63.9091C142.486 64.8432 144.016 65.3102 145.816 65.3102C147.676 65.3102 149.221 64.8281 150.451 63.8639C151.711 62.8997 152.641 61.6794 153.241 60.2029C153.871 58.6963 154.186 57.1445 154.186 55.5475C154.186 53.8903 153.856 52.3385 153.196 50.8922C152.566 49.4157 151.621 48.2255 150.361 47.3215C149.131 46.4176 147.616 45.9656 145.816 45.9656C143.956 45.9656 142.396 46.4477 141.137 47.4119C139.907 48.346 138.977 49.5513 138.347 51.0278C137.747 52.5042 137.447 54.0409 137.447 55.6379Z" fill="#E8E7E2"/>
<path d="M173.345 53.2876V71.6379H165.966V39.5475H171.815L186.62 58.4402V39.5475H194V71.6379H187.97L173.345 53.2876Z" fill="#E8E7E2"/>
</svg>
