<svg width="57" height="56" viewBox="0 0 57 56" fill="none" xmlns="http://www.w3.org/2000/svg">
<path d="M46.002 1.36987C43.6151 1.36987 41.3259 2.30508 39.638 3.96976C37.9502 5.63454 37.002 7.89238 37.002 10.2466V45.7534C37.002 48.1076 37.9502 50.3655 39.638 52.0303C41.3259 53.6949 43.6151 54.6301 46.002 54.6301C48.3889 54.6301 50.6781 53.6949 52.366 52.0303C54.0538 50.3655 55.002 48.1076 55.002 45.7534C55.002 43.3992 54.0538 41.1414 52.366 39.4766C50.6781 37.8119 48.3889 36.8767 46.002 36.8767H10.002C7.61505 36.8767 5.32585 37.8119 3.63795 39.4766C1.95016 41.1414 1.00195 43.3992 1.00195 45.7534C1.00195 48.1076 1.95016 50.3655 3.63795 52.0303C5.32585 53.6949 7.61505 54.6301 10.002 54.6301C12.3889 54.6301 14.6781 53.6949 16.366 52.0303C18.0538 50.3655 19.002 48.1076 19.002 45.7534V10.2466C19.002 7.89238 18.0538 5.63454 16.366 3.96976C14.6781 2.30508 12.3889 1.36987 10.002 1.36987C7.61505 1.36987 5.32585 2.30508 3.63795 3.96976C1.95016 5.63454 1.00195 7.89238 1.00195 10.2466C1.00195 12.6008 1.95016 14.8586 3.63795 16.5234C5.32585 18.1881 7.61505 19.1233 10.002 19.1233H46.002C48.3889 19.1233 50.6781 18.1881 52.366 16.5234C54.0538 14.8586 55.002 12.6008 55.002 10.2466C55.002 7.89238 54.0538 5.63454 52.366 3.96976C50.6781 2.30508 48.3889 1.36987 46.002 1.36987Z" stroke="#E8E7E2" stroke-width="2" stroke-linecap="round" stroke-linejoin="round"/>
</svg>
