<svg width="36" height="36" viewBox="0 0 36 36" fill="none" xmlns="http://www.w3.org/2000/svg">
<path d="M7.5 25.5H6C5.20435 25.5 4.44129 25.1839 3.87868 24.6213C3.31607 24.0587 3 23.2956 3 22.5V7.5C3 6.70435 3.31607 5.94129 3.87868 5.37868C4.44129 4.81607 5.20435 4.5 6 4.5H30C30.7956 4.5 31.5587 4.81607 32.1213 5.37868C32.6839 5.94129 33 6.70435 33 7.5V22.5C33 23.2956 32.6839 24.0587 32.1213 24.6213C31.5587 25.1839 30.7956 25.5 30 25.5H28.5" stroke="#010101" stroke-width="2" stroke-linecap="round" stroke-linejoin="round"/>
<path d="M18 22.5L25.5 31.5H10.5L18 22.5Z" stroke="#010101" stroke-width="2" stroke-linecap="round" stroke-linejoin="round"/>
</svg>
