<svg width="36" height="36" viewBox="0 0 36 36" fill="none" xmlns="http://www.w3.org/2000/svg">
<path d="M31.3157 23.9178V12.0822C31.3151 11.5633 31.1782 11.0537 30.9185 10.6044C30.6589 10.1552 30.2856 9.78216 29.8362 9.52272L19.4801 3.60492C19.0303 3.34522 18.52 3.2085 18.0006 3.2085C17.4812 3.2085 16.971 3.34522 16.5212 3.60492L6.165 9.52272C5.71564 9.78216 5.34237 10.1552 5.08273 10.6044C4.82305 11.0537 4.68608 11.5633 4.68555 12.0822V23.9178C4.68608 24.4367 4.82305 24.9463 5.08273 25.3955C5.34237 25.8448 5.71564 26.2178 6.165 26.4772L16.5212 32.395C16.971 32.6547 17.4812 32.7915 18.0006 32.7915C18.52 32.7915 19.0303 32.6547 19.4801 32.395L29.8362 26.4772C30.2856 26.2178 30.6589 25.8448 30.9185 25.3955C31.1782 24.9463 31.3151 24.4367 31.3157 23.9178Z" stroke="#010101" stroke-width="2" stroke-linecap="round" stroke-linejoin="round"/>
<path d="M5.08398 10.5435L17.9996 18.0147L30.9152 10.5435" stroke="#010101" stroke-width="2" stroke-linecap="round" stroke-linejoin="round"/>
<path d="M18 32.9129V18" stroke="#010101" stroke-width="2" stroke-linecap="round" stroke-linejoin="round"/>
</svg>
