<svg width="36" height="36" viewBox="0 0 36 36" fill="none" xmlns="http://www.w3.org/2000/svg">
<path d="M27 4.68506C25.8066 4.68506 24.662 5.15266 23.818 5.985C22.9741 6.81739 22.5 7.94631 22.5 9.12341V26.8768C22.5 28.0539 22.9741 29.1829 23.818 30.0153C24.662 30.8476 25.8066 31.3152 27 31.3152C28.1934 31.3152 29.338 30.8476 30.182 30.0153C31.0259 29.1829 31.5 28.0539 31.5 26.8768C31.5 25.6997 31.0259 24.5708 30.182 23.7384C29.338 22.9061 28.1934 22.4385 27 22.4385H9C7.80655 22.4385 6.66195 22.9061 5.818 23.7384C4.9741 24.5708 4.5 25.6997 4.5 26.8768C4.5 28.0539 4.9741 29.1829 5.818 30.0153C6.66195 30.8476 7.80655 31.3152 9 31.3152C10.1934 31.3152 11.3381 30.8476 12.182 30.0153C13.0259 29.1829 13.5 28.0539 13.5 26.8768V9.12341C13.5 7.94631 13.0259 6.81739 12.182 5.985C11.3381 5.15266 10.1934 4.68506 9 4.68506C7.80655 4.68506 6.66195 5.15266 5.818 5.985C4.9741 6.81739 4.5 7.94631 4.5 9.12341C4.5 10.3005 4.9741 11.4294 5.818 12.2618C6.66195 13.0942 7.80655 13.5618 9 13.5618H27C28.1934 13.5618 29.338 13.0942 30.182 12.2618C31.0259 11.4294 31.5 10.3005 31.5 9.12341C31.5 7.94631 31.0259 6.81739 30.182 5.985C29.338 5.15266 28.1934 4.68506 27 4.68506Z" stroke="#010101" stroke-width="2" stroke-linecap="round" stroke-linejoin="round"/>
</svg>
